<svg id="logo-ctt-vnpayqr" xmlns="http://www.w3.org/2000/svg" width="115.945" height="32" viewBox="0 0 115.945 32">
  <path id="Path_19743" data-name="Path 19743" d="M23,10.424l-3.042,3.042-.152.15-.967.969-.721.721-.967.967-.15.15-.421.421-.15.152h0L15,18.417v0l-.15.15a6.244,6.244,0,0,1-4.022,1.819,6.123,6.123,0,0,1-1.156-.032A6.205,6.205,0,0,1,7.3,19.565a4.308,4.308,0,0,1-.912-.642s0,0,0,0q-.089-.085-.177-.177L.665,13.206l-.118-.118a2.113,2.113,0,0,1-.256-.347A2.081,2.081,0,0,1,0,11.676c0-.061,0-.122.008-.181a2.241,2.241,0,0,1,.04-.262c.008-.033.016-.067.024-.1l.012-.041a2.155,2.155,0,0,1,.384-.726c.047-.057.1-.112.15-.167l.1-.1,5.9-5.9h0L10.193.625a2.128,2.128,0,0,1,2.9-.1Z" transform="translate(0 0)" fill="#004a9c"/>
  <path id="Path_19744" data-name="Path 19744" d="M30.957,35.4a3.342,3.342,0,0,1-1.394-.311l-1.134-1.132-.277-.276-.047-.049-.528-.528-2.642-2.672q.088.091.177.177a4.3,4.3,0,0,0,.915.644,6.2,6.2,0,0,0,2.379.791,6.142,6.142,0,0,0,1.156.032,6.209,6.209,0,0,0,1.841-.4,6.23,6.23,0,0,0,2.181-1.417l.15-.15v0l1.425-1.423h0l.15-.152.421-.421.15-.15.967-.967.721-.721.967-.969.152-.15,6.129-6.129,2.528-2.739.016-.016.136-.134a1.977,1.977,0,0,1,2.8,0l1.384,1.384h0l.045.045a2.264,2.264,0,0,0-1.693.644l-4.684,4.607-.047.057-8.151,8.021-.012-.01-3,2.949-.02.024c-.008.01-.073.083-.181.189a5.33,5.33,0,0,1-1.392.978,4.06,4.06,0,0,1-.906.307,3.657,3.657,0,0,1-.541.067Z" transform="translate(-18.731 -11.684)" fill="#e50019"/>
  <path id="Path_19745" data-name="Path 19745" d="M75.673,35.58l-.15.152-6.639,6.739-6.971,7.078a6.142,6.142,0,0,1-.7.6l-.028.024c-.034.023-.067.049-.1.073l-.012.01a6.429,6.429,0,0,1-8.161-.577l0,0c-.053-.045-.1-.091-.156-.138l-1.2-1.2-3.368-3.37-1.124-1.124L46.9,43.69a3.466,3.466,0,0,0,.553.044h.006l.15,0a3.9,3.9,0,0,0,.64-.077,4.625,4.625,0,0,0,1.035-.351,5.9,5.9,0,0,0,1.548-1.087c.1-.1.179-.185.211-.222l2.591-2.546.01.012L62.553,30.7l.047-.057,4.328-4.258a1.71,1.71,0,0,1,2.154-.189l1.026,1.026a0,0,0,0,1,0,0l5.564,5.564a2.029,2.029,0,0,1,.14.154,1.98,1.98,0,0,1-.14,2.644" transform="translate(-35.232 -19.453)" fill="#e50019"/>
  <path id="Path_19746" data-name="Path 19746" d="M37.063,26.692a.408.408,0,0,1-.573-.006,6.76,6.76,0,1,0-9.6,9.523l2.056,2.073a.192.192,0,0,1,.035.045l-.03,0a6.125,6.125,0,0,1-1.124-.028l-1.51-1.524A7.567,7.567,0,1,1,37.063,26.117l.006.006a.4.4,0,0,1-.006.569" transform="translate(-18.125 -17.941)" fill="#008ed4"/>
  <path id="Path_19747" data-name="Path 19747" d="M83.644,42.185l-.571.571-1-1.008a.4.4,0,0,1,.573-.569Z" transform="translate(-61.563 -30.844)" fill="#008ed4"/>
  <path id="Path_19748" data-name="Path 19748" d="M38.793,51.017l-.018.01a6.332,6.332,0,0,1-.76.354l-2.8-2.823a5.183,5.183,0,0,1-.6-6.58.4.4,0,1,1,.666.459,4.373,4.373,0,0,0,.5,5.552Z" transform="translate(-25.324 -31.403)" fill="#008ed4"/>
  <path id="Path_19749" data-name="Path 19749" d="M55.67,38.161l-.014.014-.421.421-.136.134-3.15-3.174a4.358,4.358,0,0,0-4.457-1.079.4.4,0,1,1-.248-.768,5.162,5.162,0,0,1,5.279,1.278Z" transform="translate(-35.28 -25.131)" fill="#008ed4"/>
  <path id="Path_19750" data-name="Path 19750" d="M51.24,47.074l-.571.571-3.156-3.182A1.983,1.983,0,1,0,44.7,47.258l2.034,2.052a.4.4,0,0,1-.573.569l-2.036-2.051a2.791,2.791,0,0,1,3.963-3.932Z" transform="translate(-32.538 -32.355)" fill="#008ed4"/>
  <path id="Path_19751" data-name="Path 19751" d="M56.756,55.967l-.014.014-.421.421-.136.136L53.021,53.35a.4.4,0,0,1,.573-.569Z" transform="translate(-39.741 -39.56)" fill="#008ed4"/>
  <path id="Path_19752" data-name="Path 19752" d="M179.107,49.169h3.983l3.323,9.161,2.84-7.6a.817.817,0,0,0-.114-.642c-.15-.308-.316-.616-.484-.914h2.972c-.167.615-.431,1.292-.651,1.925l-3.842,10.673a6.348,6.348,0,0,1-3.112-1.424,5.117,5.117,0,0,1-1.257-2.154l-3.209-8.124a5.8,5.8,0,0,0-.448-.906m15.869,4.291v6.55c0,.264.07.308.246.528l.774.976H192.26q.3-.475.633-.923a.992.992,0,0,0,.229-.642V50.8l-1.055-1.627h3.877l6.277,7.737V50.734a.923.923,0,0,0-.22-.642c-.2-.308-.422-.616-.642-.914H205.1l-.774.976a.638.638,0,0,0-.229.527V61.821a5.346,5.346,0,0,1-3.912-1.952Z" transform="translate(-134.545 -36.936)" fill="#e50019" fill-rule="evenodd"/>
  <path id="Path_19753" data-name="Path 19753" d="M287.2,59.786V51.338a3.009,3.009,0,0,0-.18-1.183,1.928,1.928,0,0,0-.632-.738v-.036h5.539a4.852,4.852,0,0,1,2.511.556,2.974,2.974,0,0,1,1.255,1.311,3.655,3.655,0,0,1,.332,1.476q0,2.951-3.443,3.616l-1.191.109a6.191,6.191,0,0,0-.692-.073,2.776,2.776,0,0,0,1.846-2.779q0-2.406-1.966-2.406v8.167a2.624,2.624,0,0,0,.858,2.222v.073h-5.049v-.037a2.028,2.028,0,0,0,.812-1.83" transform="translate(-215.138 -37.095)" fill="#004a9c"/>
  <path id="Path_19754" data-name="Path 19754" d="M320.645,58.861l2.557-7.25a3.915,3.915,0,0,0,.24-1.105,1.351,1.351,0,0,0-.692-1.087v-.036h4.606l3.674,9.75a6.564,6.564,0,0,0,.632,1.42,5.294,5.294,0,0,0,.919,1.029v.073h-5.732v-.073a1.238,1.238,0,0,0,.776-1.064,2.349,2.349,0,0,0-.148-.8l-.591-1.774h-3.757l-.554,1.565a5.75,5.75,0,0,0-.258,1.046.905.905,0,0,0,.175.518,2.258,2.258,0,0,0,.517.51v.073H319.14v-.073a3.344,3.344,0,0,0,.877-1.064q.138-.291.281-.673t.346-.983m3.031-2.664h2.591l-1.328-3.718Z" transform="translate(-239.738 -37.096)" fill="#004a9c"/>
  <path id="Path_19755" data-name="Path 19755" d="M367.132,56.1l-3.572-5.3a6.8,6.8,0,0,0-.674-.864,4.094,4.094,0,0,0-.618-.482v-.036h4.569l2.8,4.439,1.588-2.256a2.893,2.893,0,0,0,.369-.782,1.39,1.39,0,0,0,.064-.546,1.062,1.062,0,0,0-.646-.819v-.036h4.339l-4.68,6.686v3.129q0,.2.014.382t.023.318a3.4,3.4,0,0,0,.129.619,1.984,1.984,0,0,0,.7,1.055v.073H366.31v-.073a1.766,1.766,0,0,0,.822-1.756Z" transform="translate(-272.136 -37.123)" fill="#004a9c"/>
  <path id="Path_19756" data-name="Path 19756" d="M414.469,51.856a2.92,2.92,0,0,1,.112-.8,3.262,3.262,0,0,1,.332-.747,2.924,2.924,0,0,1,1.174-1.1,3.751,3.751,0,0,1,1.786-.406,2.8,2.8,0,0,1,.777.1,3.242,3.242,0,0,1,.721.311,2.77,2.77,0,0,1,1.061,1.1,3.737,3.737,0,0,1,.311.777,3.574,3.574,0,0,1,.1.88,3.471,3.471,0,0,1-.285,1.333,3.117,3.117,0,0,1-.816,1.152l.44.423a5.894,5.894,0,0,0,.561.47,3.525,3.525,0,0,0,.66.38,2.226,2.226,0,0,0,.755.2,2.784,2.784,0,0,1-.729.44,2.141,2.141,0,0,1-.807.151,1.814,1.814,0,0,1-.721-.151,3.645,3.645,0,0,1-.69-.371c-.229-.155-.436-.315-.621-.466l-.492-.414c-.035,0-.078,0-.134,0s-.121.013-.2.026l-.293.026a2.817,2.817,0,0,1-1.54-.444,2.991,2.991,0,0,1-1.079-1.2,3.554,3.554,0,0,1-.289-.794,3.918,3.918,0,0,1-.1-.88m1.747.017a2.7,2.7,0,0,0,.069.6,5.655,5.655,0,0,0,.164.557,2.151,2.151,0,0,0,.531.872,1.155,1.155,0,0,0,.85.341,1.049,1.049,0,0,0,.967-.518,2.54,2.54,0,0,0,.315-1.325c0-.138-.017-.362-.043-.664a4.558,4.558,0,0,0-.125-.617,3.025,3.025,0,0,0-.181-.509,1.461,1.461,0,0,0-.526-.66,1.35,1.35,0,0,0-.781-.224.975.975,0,0,0-.388.078,1.049,1.049,0,0,0-.328.216,1.5,1.5,0,0,0-.4.669,3.075,3.075,0,0,0-.125.889v.293Zm6.925.065a1.253,1.253,0,0,0,.514-.2,1.09,1.09,0,0,0,.354-.41,1.392,1.392,0,0,0,.1-.25,1.114,1.114,0,0,0,.03-.267,1.07,1.07,0,0,0-.229-.7.847.847,0,0,0-.695-.28h-.073Zm0,.488v1.713a.913.913,0,0,0,.4.867v.039h-2.485v-.039a.9.9,0,0,0,.38-.854V49.957a2.148,2.148,0,0,0-.069-.6.774.774,0,0,0-.311-.388v-.017h3.016a2.116,2.116,0,0,1,.906.185,1.446,1.446,0,0,1,.634.557,1.3,1.3,0,0,1,.177.41,1.708,1.708,0,0,1,.065.479,1.546,1.546,0,0,1-.224.746,1.862,1.862,0,0,1-.859.716l1.2,2.015a4.013,4.013,0,0,0,.777.932l-1.048.078-.263.008h-.246a.89.89,0,0,1-.941-.582Z" transform="translate(-311.35 -36.662)" fill="#e50019" fill-rule="evenodd"/>
  <path id="Path_19757" data-name="Path 19757" d="M180.471,20.27V19.206a2.668,2.668,0,0,1,.293-1.357,1.584,1.584,0,0,1,.739-.675,2.476,2.476,0,0,1,.969-.184,2.769,2.769,0,0,1,1.191.283c.106.06.159.124.159.194v.491c0,.117-.06.155-.18.109a3.038,3.038,0,0,0-.329-.1,3.144,3.144,0,0,0-.777-.117c-.714,0-1.05.339-1.05,1.354V20.27c0,.986.339,1.354,1.05,1.354a2.582,2.582,0,0,0,.58-.067,4.2,4.2,0,0,0,.527-.152c.12-.046.18-.007.18.109v.491c0,.071-.053.138-.159.2a2.512,2.512,0,0,1-.481.184,2.572,2.572,0,0,1-.71.1,1.926,1.926,0,0,1-2-2.213" transform="translate(-135.57 -12.763)" fill="#008ed4"/>
  <path id="Path_19758" data-name="Path 19758" d="M202.752,11.379a2.072,2.072,0,1,1-4.128,0V10.4a2.072,2.072,0,1,1,4.128,0Zm-.8-3.552h-.6c-.078,0-.11-.039-.166-.1l-.513-.587-.516.587c-.071.074-.089.1-.173.1h-.6c-.042,0-.064-.018-.064-.05a.1.1,0,0,1,.028-.074l.665-.87c.085-.1.1-.106.191-.106h.94c.088,0,.113.018.187.106l.661.87a.1.1,0,0,1,.028.074c0,.032-.021.05-.067.05m-.215,2.577c0-.951-.332-1.382-1.05-1.382s-1.05.431-1.05,1.382v.976c0,.947.332,1.386,1.05,1.386s1.05-.438,1.05-1.386ZM201.366,5.7V5.477a.12.12,0,0,1,.025-.067.413.413,0,0,1,.156-.1,1.068,1.068,0,0,1,.276-.081,1.677,1.677,0,0,1,.367-.014.665.665,0,0,1,.4.138.5.5,0,0,1,.173.431v.018a.647.647,0,0,1-.042.23,1.1,1.1,0,0,1-.191.287l-.2.23c-.018.028-.078.088-.1.127a.23.23,0,0,0-.039.131v.124a.147.147,0,0,1-.152.1h-.269c-.1,0-.149-.06-.149-.1V6.809a.681.681,0,0,1,.039-.248.8.8,0,0,1,.156-.233l.2-.237a.409.409,0,0,0,.109-.308.138.138,0,0,0-.064-.081.232.232,0,0,0-.138-.021,1.418,1.418,0,0,0-.343.092c-.131.053-.215-.025-.215-.078" transform="translate(-149.206 -3.918)" fill="#008ed4"/>
  <path id="Path_19759" data-name="Path 19759" d="M224.7,22.308a.291.291,0,0,1-.29.29h-.731a.625.625,0,0,1-.265-.046.416.416,0,0,1-.177-.215l-1.6-3.524c-.018-.039-.042-.056-.067-.056s-.035.017-.035.056v3.641a.14.14,0,0,1-.138.145h-.615a.15.15,0,0,1-.145-.145V17.509a.291.291,0,0,1,.29-.29h.781c.159,0,.237.053.318.233l1.686,3.722c.018.039.039.056.06.056s.035-.021.035-.067V17.357a.132.132,0,0,1,.138-.138h.622a.132.132,0,0,1,.138.138Z" transform="translate(-165.736 -12.935)" fill="#008ed4"/>
  <path id="Path_19760" data-name="Path 19760" d="M243.405,20.265a1.6,1.6,0,0,0,.276,1.036.832.832,0,0,0,.65.325c.251,0,.491-.007.718-.021V19.756a.147.147,0,0,1,.138-.145h.717a.145.145,0,0,1,.142.145v2.432a.166.166,0,0,1-.134.176c-.12.025-.255.046-.407.064s-.336.032-.562.043-.428.014-.612.014A1.9,1.9,0,0,1,243.052,22a2.223,2.223,0,0,1-.661-1.732V19.222a2.191,2.191,0,0,1,.678-1.8,2.118,2.118,0,0,1,1.393-.435,3,3,0,0,1,1.424.382c.106.06.159.127.159.2v.484c0,.117-.06.155-.18.109a5.806,5.806,0,0,0-.622-.208,2.557,2.557,0,0,0-.71-.1,1.084,1.084,0,0,0-.855.308,1.574,1.574,0,0,0-.272,1.046Z" transform="translate(-182.085 -12.764)" fill="#008ed4"/>
  <path id="Path_19761" data-name="Path 19761" d="M275.067,17.929a.13.13,0,0,1-.145.131h-1.265v4.394a.141.141,0,0,1-.145.145h-.717a.15.15,0,0,1-.145-.145V18.06h-1.265a.132.132,0,0,1-.145-.131v-.573a.139.139,0,0,1,.145-.138h3.538a.134.134,0,0,1,.145.138Z" transform="translate(-203.755 -12.935)" fill="#008ed4"/>
  <path id="Path_19762" data-name="Path 19762" d="M295.392,22.453a.141.141,0,0,1-.145.145h-.717a.151.151,0,0,1-.145-.145V20.237h-2.053v2.216a.151.151,0,0,1-.145.145h-.718a.15.15,0,0,1-.145-.145v-5.1a.147.147,0,0,1,.145-.138h.718a.147.147,0,0,1,.145.138v2h2.053v-2a.147.147,0,0,1,.145-.138h.717a.134.134,0,0,1,.145.138Z" transform="translate(-218.843 -12.935)" fill="#008ed4"/>
  <path id="Path_19763" data-name="Path 19763" d="M316.49,22.427h-.767a.157.157,0,0,1-.138-.124l-.332-1.375h-1.665l-.332,1.375a.157.157,0,0,1-.138.124h-.767a.123.123,0,0,1-.131-.124.089.089,0,0,0,.007-.036l1.188-4.538a1.054,1.054,0,0,1,2.011,0l1.188,4.538a.119.119,0,0,1-.124.159M315.058,20.1l-.523-2.152c-.025-.089-.046-.113-.116-.113s-.089.025-.113.113l-.523,2.152Z" transform="translate(-234.54 -12.764)" fill="#008ed4"/>
  <path id="Path_19764" data-name="Path 19764" d="M338.52,22.308a.291.291,0,0,1-.29.29H337.5a.626.626,0,0,1-.265-.046.417.417,0,0,1-.177-.215l-1.6-3.524c-.018-.039-.042-.056-.067-.056s-.035.017-.035.056v3.641a.14.14,0,0,1-.138.145H334.6a.15.15,0,0,1-.145-.145V17.509a.291.291,0,0,1,.29-.29h.781c.159,0,.237.053.318.233l1.686,3.722c.018.039.039.056.06.056s.035-.021.035-.067V17.357a.132.132,0,0,1,.138-.138h.622a.132.132,0,0,1,.138.138Z" transform="translate(-251.241 -12.935)" fill="#008ed4"/>
  <path id="Path_19765" data-name="Path 19765" d="M360.779,22.453a.141.141,0,0,1-.145.145h-.717a.151.151,0,0,1-.145-.145V20.237h-2.053v2.216a.151.151,0,0,1-.145.145h-.718a.15.15,0,0,1-.145-.145v-5.1a.147.147,0,0,1,.145-.138h.718a.147.147,0,0,1,.145.138v2h2.053v-2a.147.147,0,0,1,.145-.138h.717a.134.134,0,0,1,.145.138Z" transform="translate(-267.962 -12.935)" fill="#008ed4"/>
  <path id="Path_19766" data-name="Path 19766" d="M391.035,17.929a.13.13,0,0,1-.145.131h-1.265v4.394a.141.141,0,0,1-.145.145h-.718a.15.15,0,0,1-.145-.145V18.06h-1.265a.132.132,0,0,1-.145-.131v-.573a.139.139,0,0,1,.145-.138h3.538a.134.134,0,0,1,.145.138Z" transform="translate(-290.871 -12.935)" fill="#008ed4"/>
  <path id="Path_19767" data-name="Path 19767" d="M410.923,20.226a2.073,2.073,0,1,1-4.128,0V19.25a2.072,2.072,0,1,1,4.128,0Zm-1.014-.976c0-.951-.332-1.382-1.05-1.382s-1.05.431-1.05,1.382v.976c0,.947.332,1.386,1.05,1.386s1.05-.438,1.05-1.386Z" transform="translate(-305.585 -12.764)" fill="#008ed4"/>
  <path id="Path_19768" data-name="Path 19768" d="M431.706,18.169h-.767a.157.157,0,0,1-.138-.124l-.332-1.375H428.8l-.332,1.375a.157.157,0,0,1-.138.124h-.767a.123.123,0,0,1-.131-.124.092.092,0,0,0,.007-.036l1.188-4.538a1.054,1.054,0,0,1,2.011,0l1.188,4.538a.132.132,0,0,1,.007.036.123.123,0,0,1-.131.124m-1.432-2.322-.523-2.153c-.025-.088-.046-.113-.117-.113s-.088.025-.113.113L429,15.847Zm.548-4.418-.852.9a.2.2,0,0,1-.177.1h-.622c-.043,0-.064-.018-.064-.05a.1.1,0,0,1,.028-.074l.689-.87c.071-.088.1-.106.187-.106h.76c.053,0,.078.018.078.049a.087.087,0,0,1-.028.057" transform="translate(-321.091 -8.506)" fill="#008ed4"/>
  <path id="Path_19769" data-name="Path 19769" d="M453.735,22.308a.291.291,0,0,1-.29.29h-.731a.626.626,0,0,1-.265-.046.417.417,0,0,1-.177-.215l-1.6-3.524c-.018-.039-.042-.056-.067-.056s-.035.017-.035.056v3.641a.14.14,0,0,1-.138.145h-.615a.15.15,0,0,1-.145-.145V17.509a.291.291,0,0,1,.29-.29h.781c.159,0,.237.053.318.233l1.686,3.722c.018.039.039.056.06.056s.035-.021.035-.067V17.357a.132.132,0,0,1,.138-.138h.622a.132.132,0,0,1,.138.138Z" transform="translate(-337.791 -12.935)" fill="#008ed4"/>
</svg>
